HIERARCHY
ROOT Hips
{
    OFFSET 13.569282531738281 94.97510528564453 -18.392553329467773
    CHANNELS 6 Xposition Yposition Zposition Zrotation Xrotation Yrotation
    JOINT RightUpLeg
    {
        OFFSET -13.569282531738281 0.0 0.0
        CHANNELS 3 Zrotation Xrotation Yrotation
        JOINT RightLeg
        {
            OFFSET 0.0 -48.99372100830078 0.0
            CHANNELS 3 Zrotation Xrotation Yrotation
            JOINT RightFoot
            {
                OFFSET 0.0 -45.98138427734375 0.0
                CHANNELS 3 Zrotation Xrotation Yrotation
                End Site
                {
                    OFFSET 0.0 0.0 18.392553329467773
                }
            }
        }
    }
    JOINT LeftUpLeg
    {
        OFFSET 13.569282531738281 0.0 0.0
        CHANNELS 3 Zrotation Xrotation Yrotation
        JOINT LeftLeg
        {
            OFFSET 0.0 -48.99372100830078 0.0
            CHANNELS 3 Zrotation Xrotation Yrotation
            JOINT LeftFoot
            {
                OFFSET 0.0 -45.98138427734375 0.0
                CHANNELS 3 Zrotation Xrotation Yrotation
                End Site
                {
                    OFFSET 0.0 0.0 18.392553329467773
                }
            }
        }
    }
    JOINT Spine
    {
        OFFSET 0.0 26.02830696105957 0.0
        CHANNELS 3 Zrotation Xrotation Yrotation
        JOINT Spine3
        {
            OFFSET 0.0 25.707931518554688 0.0
            CHANNELS 3 Zrotation Xrotation Yrotation
            JOINT Neck
            {
                OFFSET 0.0 11.377967834472656 0.0
                CHANNELS 3 Zrotation Xrotation Yrotation
                End Site
                {
                    OFFSET 0.0 4.551187515258789 0.0
                }
            }
            JOINT LeftArm
            {
                OFFSET 14.338211059570312 0.0 0.0
                CHANNELS 3 Zrotation Xrotation Yrotation
                JOINT LeftForeArm
                {
                    OFFSET 28.803199768066406 0.0 0.0
                    CHANNELS 3 Zrotation Xrotation Yrotation
                    JOINT LeftHand
                    {
                        OFFSET 25.45382308959961 0.0 0.0
                        CHANNELS 3 Zrotation Xrotation Yrotation
                        End Site
                        {
                            OFFSET 10.181529998779297 0.0 0.0
                        }
                    }
                }
            }
            JOINT RightArm
            {
                OFFSET -14.338211059570312 0.0 0.0
                CHANNELS 3 Zrotation Xrotation Yrotation
                JOINT RightForeArm
                {
                    OFFSET -28.803199768066406 0.0 0.0
                    CHANNELS 3 Zrotation Xrotation Yrotation
                    JOINT RightHand
                    {
                        OFFSET -25.45382308959961 0.0 0.0
                        CHANNELS 3 Zrotation Xrotation Yrotation
                        End Site
                        {
                            OFFSET -10.181529998779297 0.0 0.0
                        }
                    }
                }
            }
        }
    }
}
MOTION
Frames: 9
Frame Time: 0.03333333333333333
-0.00012063492613378912 94.54987335205078 -0.000638339202851057 1.4022026580142768 -18.108966692091055 -2.656876008753936 2.5910513101016837 26.790088053129523 -2.8513508459474344 -4.047725377124832 6.185990793412474 -0.16960271714053218 0.0 3.1060104311167156e-18 0.0 0.13274031971830186 26.832886344373296 -1.7440612047114812 -0.5388093222620535 4.97199313558774 -0.2523893689297797 -3.9756933518293955e-16 -1.2424041724466858e-17 -8.94531004161614e-16 1.016118208158291 32.03698930314415 -2.516774935707541 -1.438564128514376e-07 -4.234772154807437e-08 0.07619198431185562 0.08929384458498155 0.00020083768474086122 174.68978876425186 112.82546949374398 -18.223820390867907 -175.520775848212 1.9197095179653267e-06 -6.704899207706033e-07 23.938332723178043 -2.782985346280577e-15 -3.1805546814635168e-15 -7.724336021587778e-32 -110.86337375253734 -31.107450466440373 169.5622021186781 -1.8844290159629297e-06 -8.775878013863721e-07 -23.141436228918597 9.14409470920761e-15 3.1805546814635168e-15 -2.537996121378841e-31
-0.00010893341095652431 94.54985809326172 -0.0006423651939257979 1.1831704885882703 -18.09508971527411 -3.0375202425009595 2.395941677388397 27.03339614599353 -2.731904605217488 -3.525023668731001 5.914850229560654 -0.18617843855128333 -1.616420763446103e-35 6.2120208622334304e-18 2.9817700138720465e-16 0.13653486958629815 26.722568073454035 -1.6860835851984701 -0.49656733618869897 5.1974828897221546 -0.2587210807659749 -3.975693351829396e-16 8.620910738379216e-34 -2.4848083448933725e-16 1.3214013489884575 31.822905252439217 -2.601292583554933 1.2405537687461088e-07 -2.5591829250905127e-07 0.1327822230638728 -0.19365302604300336 -0.054358845908538914 174.75083973333938 112.17739328790303 -19.13286741224602 -175.6702060951154 -3.833509052945904e-06 4.792328632064967e-06 23.498730914995868 8.827812596100317e-32 -3.1805546814635168e-15 3.1805546814635168e-15 -111.01625408036824 -30.84924194821755 169.93173191074013 -4.2564956118331205e-06 -4.2344795841593286e-08 -23.10411953740042 6.3611093629270335e-15 1.7655625192200634e-31 3.1805546814635168e-15
-0.00011220777378184721 94.54981994628906 -0.0006263642571866512 1.051085180576026 -17.96936465359618 -3.2264353119697744 2.504030500336174 26.92361846766369 -2.6580742521992944 -3.5505696653570213 6.01320250990813 -0.17411378159673235 -1.9878466759146977e-16 6.465683053784412e-34 -3.7272125173400585e-16 0.15649351399580647 26.44688956267841 -1.5680995405705074 -0.5099550574806119 5.349424885785738 -0.24671983290128344 -3.975693351829396e-16 1.5778532990072915e-15 1.4908850069360235e-16 1.585717452169117 31.685153016633222 -2.6000453029396158 1.0326469048051169e-07 -2.863207483211912e-07 0.01460047225745146 -0.36697524976930973 -0.11640480343324472 175.24710012570637 111.65850941088061 -21.13973556888924 -175.80498593353656 6.929452465186218e-07 7.619720661126017e-07 23.324946663682557 6.3611093629270335e-15 3.531125038440127e-31 6.3611093629270335e-15 -111.25693841571548 -30.72186174914116 170.2295215997504 3.1088663768806957e-06 1.1983157995261865e-06 -23.38879387664259 2.3854160110976376e-15 6.620859447075238e-32 3.1805546814635168e-15
-0.00011950332554988563 94.54981231689453 -0.000620630627963692 1.0387024316563422 -17.723863141248373 -3.6106891931845997 2.3111604250565647 26.73516488257099 -2.4861514897061685 -3.501682180668218 6.1600602950880425 -0.15182688432119557 -1.987846675914698e-16 3.1743426606012833e-15 1.2424041724466862e-16 -0.04571926226056239 25.756878258338503 -1.3770976549791887 -0.5414127525914845 5.567111535307558 -0.22479360027935588 0.0 0.0 2.4848083448933725e-16 1.5673865522972974 31.49069051869415 -2.498147834190529 1.97806552117764e-07 -1.358066528674892e-07 0.15259423887844126 -0.2924929036397713 -0.17082812810091944 175.53799234925367 111.04156340091123 -22.96250588547175 -176.1774568257082 -3.0115524784478173e-06 -1.7015689720540166e-06 23.397891377631403 0.0 -3.1805546814635168e-15 0.0 -111.23053081943239 -29.545928585263358 170.56388341536373 -3.0218558545290678e-06 -8.96698356229595e-07 -23.330110382499967 4.373262687012335e-15 3.1805546814635168e-15 -1.2138242319637935e-31
-0.0001166893052868545 94.54983520507812 -0.0006368934991769493 0.8909867222406994 -17.501794478817366 -3.8289603655343774 2.591523342443181 26.270350553252747 -2.5049545745017086 -4.221164460325124 6.4720700184949 -0.09394796134899508 0.0 0.0 -2.236327510404035e-16 -0.061826859524750484 25.334956313396027 -1.2856171418203834 -0.33233675936799834 5.695508065403011 -0.23699303847353553 -3.975693351829397e-16 5.17254644302753e-34 -1.490885006936024e-16 1.769909421825209 31.298468731264204 -2.5128194689651515 -3.1559731981560173e-07 -8.686435571130613e-07 0.26407514635110685 -0.16351481335357798 -0.09273026970608472 175.30499588061235 110.51100423634061 -24.73444832528976 -176.4948559149712 -3.268681921337201e-06 -1.0431876312608488e-06 23.954497270216244 6.3611093629270335e-15 0.0 0.0 -111.60999837119752 -29.342767656991654 170.93031883539962 -5.137648648653629e-06 3.033518353387477e-06 -23.902056131909948 3.975693351829396e-16 0.0 0.0
-0.00012268601858522743 94.54989624023438 -0.0006787367747165263 0.7860112344644189 -17.248549888483698 -4.316020976525154 2.4515472412310713 25.88476472116929 -2.4551224927885382 -4.420601031192429 6.497098885059816 -0.07002544944791961 -4.969616689786746e-17 -3.1774486710324002e-15 -3.4787316828507215e-16 -0.04984337078255362 24.869286565941543 -1.3129063507894427 -0.4071087092269975 5.893268803252965 -0.24948914669129918 1.0264271847882754e-32 1.5778532990072911e-15 -7.454425034680116e-16 1.7022709561816243 30.96963035707977 -2.5083057984414476 -4.2942145212010256e-07 -5.063519247167244e-07 0.5451381434298082 -0.24048481903937324 -0.4570228132673671 174.464207295159 109.9275200404409 -25.21602620035579 -177.04133407037997 1.235124573686307e-06 -7.096346378127751e-06 24.228939722456474 3.975693351829395e-15 0.0 0.0 -111.51558415726548 -27.96573436838239 171.249512385704 2.5677947361604765e-06 -3.846138587049233e-06 -23.71929703709543 -6.758678698109972e-15 0.0 0.0
-0.0001273658126592636 94.54995727539062 -0.0006954165874049067 0.67804651084762 -17.185112898719733 -4.372445896079136 2.548417784725278 25.65334349494835 -2.3993122232526223 -4.700645534997061 6.645833104657025 -0.03186836135734528 3.727212517340059e-17 -2.4145285153976164e-34 -7.423364930368951e-16 0.05271037505911958 24.68556365279242 -1.2722656673933974 -0.47634336414515116 6.103702472334389 -0.24417322816107837 -8.082103817230515e-35 -1.2424041724466865e-17 -7.454425034680119e-16 1.727441452644046 30.777962790346283 -2.4157464822999297 5.391247037011651e-07 -7.865348421034821e-07 0.7667296509305145 0.16173680688159325 -0.0879517789661725 174.97195326643106 109.95694101235352 -27.417288039149767 -177.2036728798897 -4.978688586206662e-06 -4.521518033480854e-06 24.60917077271122 2.385416011097637e-15 6.620859447075238e-32 3.1805546814635164e-15 -111.83893367710476 -26.87850593099689 171.5707516785355 -3.2746172287180847e-06 -4.7185417249674456e-07 -23.925599046270417 9.93923337957349e-15 0.0 0.0
-0.00013255626254249364 94.55001068115234 -0.0007150982273742557 0.6455627201696665 -17.044723098616537 -4.367562342343968 2.6203407356259922 25.32750650661803 -2.3848448502396273 -4.7593810254257924 6.969814531898293 -0.03148787264701383 1.3666445896913547e-16 -3.1805546814635176e-15 -9.84605306663999e-16 0.15256656886014228 24.502642635803376 -1.288732556955955 -0.506584621217941 5.9951351516275615 -0.2428892515833791 -3.975693351829396e-16 1.3793457181406746e-33 -3.975693351829396e-16 1.4556253260936327 30.56821986844529 -2.241938081109234 2.0586630065887583e-07 1.3692212225907565e-07 0.8168056722725029 0.6146750186745613 0.40386036356964544 175.46761174998227 109.92092957653034 -26.188030179401594 -177.64583050474118 5.404089719630377e-06 -4.021568433601486e-06 24.563314601124816 -7.951386703658792e-15 3.1805546814635168e-15 -3.1805546814635164e-15 -111.47435228491499 -24.84149349536358 171.4921634232776 4.6069358091054815e-06 1.7016241309733836e-06 -24.079418297328935 3.975693351829396e-16 -2.2069531490250793e-32 -6.3611093629270335e-15
-0.000146251026308164 94.55001068115234 -0.0007285243482328951 0.6114048081099568 -16.94999478484208 -4.202438003904692 2.7795819736543943 25.074298903247477 -2.362947010442003 -4.6571007205105195 7.244377533484572 -0.04707970035948775 9.93923337957349e-17 -3.1805546814635168e-15 7.765026077791789e-17 0.17290455907012736 24.303272888525935 -1.222141971693901 -0.5530491828947972 6.041606445962474 -0.22709093879036002 -9.159717659527918e-35 -1.2424041724466862e-17 -8.448348372637467e-16 1.3694513076376396 29.99075753677704 -2.0809673481930537 1.0251411816074496e-08 3.1435716946960345e-07 0.8290706035306258 0.709940398755713 0.8649355231948037 175.90471429275894 109.78650051943218 -26.25692961056019 -178.4953570875542 -1.256160798776656e-06 -5.570007588985991e-06 24.611998281268935 2.3854160110976384e-15 3.1805546814635176e-15 -6.620859447075238e-32 -112.58024669815734 -23.744518123108016 170.4641097967982 1.930639031421881e-06 1.2731153894863758e-06 -23.874390210659797 4.373262687012335e-15 0.0 0.0
